<svg xmlns="http://www.w3.org/2000/svg" viewBox="0 0 1000 840" fill="none" role="img"><title>107 Design geometric pattern</title><path d="M-70 -70 L0 0 L-70 70 L-140 0 Z" stroke="#1F1F1F" stroke-width="1" fill="none"/><path d="M70 -70 L140 0 L70 70 L0 0 Z" stroke="#1F1F1F" stroke-width="1" fill="none"/><path d="M210 -70 L280 0 L210 70 L140 0 Z" stroke="#1F1F1F" stroke-width="1" fill="none"/><path d="M350 -70 L420 0 L350 70 L280 0 Z" stroke="#1F1F1F" stroke-width="1" fill="none"/><path d="M490 -70 L560 0 L490 70 L420 0 Z" stroke="#1F1F1F" stroke-width="1" fill="none"/><path d="M630 -70 L700 0 L630 70 L560 0 Z" stroke="#1F1F1F" stroke-width="1" fill="none"/><path d="M770 -70 L840 0 L770 70 L700 0 Z" stroke="#1F1F1F" stroke-width="1" fill="none"/><path d="M910 -70 L980 0 L910 70 L840 0 Z" stroke="#1F1F1F" stroke-width="1" fill="none"/><path d="M1050 -70 L1120 0 L1050 70 L980 0 Z" stroke="#1F1F1F" stroke-width="1" fill="none"/><path d="M0 0 L70 70 L0 140 L-70 70 Z" stroke="#1F1F1F" stroke-width="1" fill="none"/><path d="M140 0 L210 70 L140 140 L70 70 Z" stroke="#1F1F1F" stroke-width="1" fill="none"/><path d="M280 0 L350 70 L280 140 L210 70 Z" stroke="#1F1F1F" stroke-width="1" fill="none"/><path d="M420 0 L490 70 L420 140 L350 70 Z" stroke="#1F1F1F" stroke-width="1" fill="none"/><path d="M560 0 L630 70 L560 140 L490 70 Z" stroke="#1F1F1F" stroke-width="1" fill="none"/><path d="M700 0 L770 70 L700 140 L630 70 Z" stroke="#1F1F1F" stroke-width="1" fill="none"/><path d="M840 0 L910 70 L840 140 L770 70 Z" stroke="#1F1F1F" stroke-width="1" fill="none"/><path d="M980 0 L1050 70 L980 140 L910 70 Z" stroke="#1F1F1F" stroke-width="1" fill="none"/><path d="M1120 0 L1190 70 L1120 140 L1050 70 Z" stroke="#1F1F1F" stroke-width="1" fill="none"/><path d="M-70 70 L0 140 L-70 210 L-140 140 Z" stroke="#1F1F1F" stroke-width="1" fill="none"/><path d="M70 70 L140 140 L70 210 L0 140 Z" stroke="#1F1F1F" stroke-width="1" fill="none"/><path d="M210 70 L280 140 L210 210 L140 140 Z" stroke="#1F1F1F" stroke-width="1" fill="none"/><path d="M350 70 L420 140 L350 210 L280 140 Z" stroke="#1F1F1F" stroke-width="1" fill="none"/><path d="M490 70 L560 140 L490 210 L420 140 Z" stroke="#1F1F1F" stroke-width="1" fill="none"/><path d="M630 70 L700 140 L630 210 L560 140 Z" stroke="#1F1F1F" stroke-width="1" fill="none"/><path d="M770 70 L840 140 L770 210 L700 140 Z" stroke="#1F1F1F" stroke-width="1" fill="none"/><path d="M910 70 L980 140 L910 210 L840 140 Z" stroke="#1F1F1F" stroke-width="1" fill="none"/><path d="M1050 70 L1120 140 L1050 210 L980 140 Z" stroke="#1F1F1F" stroke-width="1" fill="none"/><path d="M0 140 L70 210 L0 280 L-70 210 Z" stroke="#1F1F1F" stroke-width="1" fill="none"/><path d="M140 140 L210 210 L140 280 L70 210 Z" stroke="#1F1F1F" stroke-width="1" fill="none"/><path d="M280 140 L350 210 L280 280 L210 210 Z" stroke="#1F1F1F" stroke-width="1" fill="none"/><path d="M420 140 L490 210 L420 280 L350 210 Z" stroke="#1F1F1F" stroke-width="1" fill="none"/><path d="M560 140 L630 210 L560 280 L490 210 Z" stroke="#1F1F1F" stroke-width="1" fill="none"/><path d="M700 140 L770 210 L700 280 L630 210 Z" stroke="#1F1F1F" stroke-width="1" fill="none"/><path d="M840 140 L910 210 L840 280 L770 210 Z" stroke="#1F1F1F" stroke-width="1" fill="none"/><path d="M980 140 L1050 210 L980 280 L910 210 Z" stroke="#1F1F1F" stroke-width="1" fill="none"/><path d="M1120 140 L1190 210 L1120 280 L1050 210 Z" stroke="#1F1F1F" stroke-width="1" fill="none"/><path d="M-70 210 L0 280 L-70 350 L-140 280 Z" stroke="#1F1F1F" stroke-width="1" fill="none"/><path d="M70 210 L140 280 L70 350 L0 280 Z" stroke="#1F1F1F" stroke-width="1" fill="none"/><path d="M210 210 L280 280 L210 350 L140 280 Z" stroke="#1F1F1F" stroke-width="1" fill="none"/><path d="M350 210 L420 280 L350 350 L280 280 Z" stroke="#1F1F1F" stroke-width="1" fill="none"/><path d="M490 210 L560 280 L490 350 L420 280 Z" stroke="#1F1F1F" stroke-width="1" fill="none"/><path d="M630 210 L700 280 L630 350 L560 280 Z" stroke="#1F1F1F" stroke-width="1" fill="none"/><path d="M770 210 L840 280 L770 350 L700 280 Z" stroke="#1F1F1F" stroke-width="1" fill="none"/><path d="M910 210 L980 280 L910 350 L840 280 Z" stroke="#1F1F1F" stroke-width="1" fill="none"/><path d="M1050 210 L1120 280 L1050 350 L980 280 Z" stroke="#1F1F1F" stroke-width="1" fill="none"/><path d="M0 280 L70 350 L0 420 L-70 350 Z" stroke="#1F1F1F" stroke-width="1" fill="none"/><path d="M140 280 L210 350 L140 420 L70 350 Z" stroke="#1F1F1F" stroke-width="1" fill="none"/><path d="M280 280 L350 350 L280 420 L210 350 Z" stroke="#1F1F1F" stroke-width="1" fill="none"/><path d="M420 280 L490 350 L420 420 L350 350 Z" stroke="#1F1F1F" stroke-width="1" fill="none"/><path d="M560 280 L630 350 L560 420 L490 350 Z" stroke="#1F1F1F" stroke-width="1" fill="none"/><path d="M700 280 L770 350 L700 420 L630 350 Z" stroke="#1F1F1F" stroke-width="1" fill="none"/><path d="M840 280 L910 350 L840 420 L770 350 Z" stroke="#1F1F1F" stroke-width="1" fill="none"/><path d="M980 280 L1050 350 L980 420 L910 350 Z" stroke="#1F1F1F" stroke-width="1" fill="none"/><path d="M1120 280 L1190 350 L1120 420 L1050 350 Z" stroke="#1F1F1F" stroke-width="1" fill="none"/><path d="M-70 350 L0 420 L-70 490 L-140 420 Z" stroke="#1F1F1F" stroke-width="1" fill="none"/><path d="M70 350 L140 420 L70 490 L0 420 Z" stroke="#1F1F1F" stroke-width="1" fill="none"/><path d="M210 350 L280 420 L210 490 L140 420 Z" stroke="#1F1F1F" stroke-width="1" fill="none"/><path d="M350 350 L420 420 L350 490 L280 420 Z" stroke="#1F1F1F" stroke-width="1" fill="none"/><path d="M490 350 L560 420 L490 490 L420 420 Z" stroke="#1F1F1F" stroke-width="1" fill="none"/><path d="M630 350 L700 420 L630 490 L560 420 Z" stroke="#1F1F1F" stroke-width="1" fill="none"/><path d="M770 350 L840 420 L770 490 L700 420 Z" stroke="#1F1F1F" stroke-width="1" fill="none"/><path d="M910 350 L980 420 L910 490 L840 420 Z" stroke="#1F1F1F" stroke-width="1" fill="none"/><path d="M1050 350 L1120 420 L1050 490 L980 420 Z" stroke="#1F1F1F" stroke-width="1" fill="none"/><path d="M0 420 L70 490 L0 560 L-70 490 Z" stroke="#1F1F1F" stroke-width="1" fill="none"/><path d="M140 420 L210 490 L140 560 L70 490 Z" stroke="#1F1F1F" stroke-width="1" fill="none"/><path d="M280 420 L350 490 L280 560 L210 490 Z" stroke="#1F1F1F" stroke-width="1" fill="none"/><path d="M420 420 L490 490 L420 560 L350 490 Z" stroke="#1F1F1F" stroke-width="1" fill="none"/><path d="M560 420 L630 490 L560 560 L490 490 Z" stroke="#1F1F1F" stroke-width="1" fill="none"/><path d="M700 420 L770 490 L700 560 L630 490 Z" stroke="#1F1F1F" stroke-width="1" fill="none"/><path d="M840 420 L910 490 L840 560 L770 490 Z" stroke="#1F1F1F" stroke-width="1" fill="none"/><path d="M980 420 L1050 490 L980 560 L910 490 Z" stroke="#1F1F1F" stroke-width="1" fill="none"/><path d="M1120 420 L1190 490 L1120 560 L1050 490 Z" stroke="#1F1F1F" stroke-width="1" fill="none"/><path d="M-70 490 L0 560 L-70 630 L-140 560 Z" stroke="#1F1F1F" stroke-width="1" fill="none"/><path d="M70 490 L140 560 L70 630 L0 560 Z" stroke="#1F1F1F" stroke-width="1" fill="none"/><path d="M210 490 L280 560 L210 630 L140 560 Z" stroke="#1F1F1F" stroke-width="1" fill="none"/><path d="M350 490 L420 560 L350 630 L280 560 Z" stroke="#1F1F1F" stroke-width="1" fill="none"/><path d="M490 490 L560 560 L490 630 L420 560 Z" stroke="#1F1F1F" stroke-width="1" fill="none"/><path d="M630 490 L700 560 L630 630 L560 560 Z" stroke="#1F1F1F" stroke-width="1" fill="none"/><path d="M770 490 L840 560 L770 630 L700 560 Z" stroke="#1F1F1F" stroke-width="1" fill="none"/><path d="M910 490 L980 560 L910 630 L840 560 Z" stroke="#1F1F1F" stroke-width="1" fill="none"/><path d="M1050 490 L1120 560 L1050 630 L980 560 Z" stroke="#1F1F1F" stroke-width="1" fill="none"/><path d="M0 560 L70 630 L0 700 L-70 630 Z" stroke="#1F1F1F" stroke-width="1" fill="none"/><path d="M140 560 L210 630 L140 700 L70 630 Z" stroke="#1F1F1F" stroke-width="1" fill="none"/><path d="M280 560 L350 630 L280 700 L210 630 Z" stroke="#1F1F1F" stroke-width="1" fill="none"/><path d="M420 560 L490 630 L420 700 L350 630 Z" stroke="#1F1F1F" stroke-width="1" fill="none"/><path d="M560 560 L630 630 L560 700 L490 630 Z" stroke="#1F1F1F" stroke-width="1" fill="none"/><path d="M700 560 L770 630 L700 700 L630 630 Z" stroke="#1F1F1F" stroke-width="1" fill="none"/><path d="M840 560 L910 630 L840 700 L770 630 Z" stroke="#1F1F1F" stroke-width="1" fill="none"/><path d="M980 560 L1050 630 L980 700 L910 630 Z" stroke="#1F1F1F" stroke-width="1" fill="none"/><path d="M1120 560 L1190 630 L1120 700 L1050 630 Z" stroke="#1F1F1F" stroke-width="1" fill="none"/><path d="M-70 630 L0 700 L-70 770 L-140 700 Z" stroke="#1F1F1F" stroke-width="1" fill="none"/><path d="M70 630 L140 700 L70 770 L0 700 Z" stroke="#1F1F1F" stroke-width="1" fill="none"/><path d="M210 630 L280 700 L210 770 L140 700 Z" stroke="#1F1F1F" stroke-width="1" fill="none"/><path d="M350 630 L420 700 L350 770 L280 700 Z" stroke="#1F1F1F" stroke-width="1" fill="none"/><path d="M490 630 L560 700 L490 770 L420 700 Z" stroke="#1F1F1F" stroke-width="1" fill="none"/><path d="M630 630 L700 700 L630 770 L560 700 Z" stroke="#1F1F1F" stroke-width="1" fill="none"/><path d="M770 630 L840 700 L770 770 L700 700 Z" stroke="#1F1F1F" stroke-width="1" fill="none"/><path d="M910 630 L980 700 L910 770 L840 700 Z" stroke="#1F1F1F" stroke-width="1" fill="none"/><path d="M1050 630 L1120 700 L1050 770 L980 700 Z" stroke="#1F1F1F" stroke-width="1" fill="none"/><path d="M0 700 L70 770 L0 840 L-70 770 Z" stroke="#1F1F1F" stroke-width="1" fill="none"/><path d="M140 700 L210 770 L140 840 L70 770 Z" stroke="#1F1F1F" stroke-width="1" fill="none"/><path d="M280 700 L350 770 L280 840 L210 770 Z" stroke="#1F1F1F" stroke-width="1" fill="none"/><path d="M420 700 L490 770 L420 840 L350 770 Z" stroke="#1F1F1F" stroke-width="1" fill="none"/><path d="M560 700 L630 770 L560 840 L490 770 Z" stroke="#1F1F1F" stroke-width="1" fill="none"/><path d="M700 700 L770 770 L700 840 L630 770 Z" stroke="#1F1F1F" stroke-width="1" fill="none"/><path d="M840 700 L910 770 L840 840 L770 770 Z" stroke="#1F1F1F" stroke-width="1" fill="none"/><path d="M980 700 L1050 770 L980 840 L910 770 Z" stroke="#1F1F1F" stroke-width="1" fill="none"/><path d="M1120 700 L1190 770 L1120 840 L1050 770 Z" stroke="#1F1F1F" stroke-width="1" fill="none"/><path d="M-70 770 L0 840 L-70 910 L-140 840 Z" stroke="#1F1F1F" stroke-width="1" fill="none"/><path d="M70 770 L140 840 L70 910 L0 840 Z" stroke="#1F1F1F" stroke-width="1" fill="none"/><path d="M210 770 L280 840 L210 910 L140 840 Z" stroke="#1F1F1F" stroke-width="1" fill="none"/><path d="M350 770 L420 840 L350 910 L280 840 Z" stroke="#1F1F1F" stroke-width="1" fill="none"/><path d="M490 770 L560 840 L490 910 L420 840 Z" stroke="#1F1F1F" stroke-width="1" fill="none"/><path d="M630 770 L700 840 L630 910 L560 840 Z" stroke="#1F1F1F" stroke-width="1" fill="none"/><path d="M770 770 L840 840 L770 910 L700 840 Z" stroke="#1F1F1F" stroke-width="1" fill="none"/><path d="M910 770 L980 840 L910 910 L840 840 Z" stroke="#1F1F1F" stroke-width="1" fill="none"/><path d="M1050 770 L1120 840 L1050 910 L980 840 Z" stroke="#1F1F1F" stroke-width="1" fill="none"/><path d="M0 840 L70 910 L0 980 L-70 910 Z" stroke="#1F1F1F" stroke-width="1" fill="none"/><path d="M140 840 L210 910 L140 980 L70 910 Z" stroke="#1F1F1F" stroke-width="1" fill="none"/><path d="M280 840 L350 910 L280 980 L210 910 Z" stroke="#1F1F1F" stroke-width="1" fill="none"/><path d="M420 840 L490 910 L420 980 L350 910 Z" stroke="#1F1F1F" stroke-width="1" fill="none"/><path d="M560 840 L630 910 L560 980 L490 910 Z" stroke="#1F1F1F" stroke-width="1" fill="none"/><path d="M700 840 L770 910 L700 980 L630 910 Z" stroke="#1F1F1F" stroke-width="1" fill="none"/><path d="M840 840 L910 910 L840 980 L770 910 Z" stroke="#1F1F1F" stroke-width="1" fill="none"/><path d="M980 840 L1050 910 L980 980 L910 910 Z" stroke="#1F1F1F" stroke-width="1" fill="none"/><path d="M1120 840 L1190 910 L1120 980 L1050 910 Z" stroke="#1F1F1F" stroke-width="1" fill="none"/><path d="M210 210 L280 280 L210 350 L140 280 Z" stroke="#C8102E" stroke-width="1.5" fill="none"/><path d="M560 350 L630 420 L560 490 L490 420 Z" stroke="#C8102E" stroke-width="1.5" fill="none"/><path d="M840 560 L910 630 L840 700 L770 630 Z" stroke="#C8102E" stroke-width="1.5" fill="none"/><path d="M350 630 L420 700 L350 770 L280 700 Z" stroke="#C8102E" stroke-width="1.5" fill="none"/></svg>