<svg xmlns="http://www.w3.org/2000/svg" viewBox="0 0 600 600" fill="none" role="img"><title>Fair, not Equal</title><path d="M60 53 L67 60 L60 67 L53 60 Z" fill="#D9D7D2" opacity="0.5"/><path d="M60 143 L67 150 L60 157 L53 150 Z" fill="#D9D7D2" opacity="0.5"/><path d="M60 233 L67 240 L60 247 L53 240 Z" fill="#D9D7D2" opacity="0.5"/><path d="M60 323 L67 330 L60 337 L53 330 Z" fill="#D9D7D2" opacity="0.5"/><path d="M60 413 L67 420 L60 427 L53 420 Z" fill="#D9D7D2" opacity="0.5"/><path d="M60 503 L67 510 L60 517 L53 510 Z" fill="#D9D7D2" opacity="0.5"/><path d="M150 53 L157 60 L150 67 L143 60 Z" fill="#D9D7D2" opacity="0.5"/><path d="M150 143 L157 150 L150 157 L143 150 Z" fill="#D9D7D2" opacity="0.5"/><path d="M150 233 L157 240 L150 247 L143 240 Z" fill="#D9D7D2" opacity="0.5"/><path d="M150 323 L157 330 L150 337 L143 330 Z" fill="#D9D7D2" opacity="0.5"/><path d="M150 413 L157 420 L150 427 L143 420 Z" fill="#D9D7D2" opacity="0.5"/><path d="M150 503 L157 510 L150 517 L143 510 Z" fill="#D9D7D2" opacity="0.5"/><path d="M240 53 L247 60 L240 67 L233 60 Z" fill="#D9D7D2" opacity="0.5"/><path d="M240 143 L247 150 L240 157 L233 150 Z" fill="#D9D7D2" opacity="0.5"/><path d="M240 233 L247 240 L240 247 L233 240 Z" fill="#D9D7D2" opacity="0.5"/><path d="M240 323 L247 330 L240 337 L233 330 Z" fill="#D9D7D2" opacity="0.5"/><path d="M240 413 L247 420 L240 427 L233 420 Z" fill="#D9D7D2" opacity="0.5"/><path d="M240 503 L247 510 L240 517 L233 510 Z" fill="#D9D7D2" opacity="0.5"/><path d="M330 53 L337 60 L330 67 L323 60 Z" fill="#D9D7D2" opacity="0.5"/><path d="M330 143 L337 150 L330 157 L323 150 Z" fill="#D9D7D2" opacity="0.5"/><path d="M330 233 L337 240 L330 247 L323 240 Z" fill="#D9D7D2" opacity="0.5"/><path d="M330 323 L337 330 L330 337 L323 330 Z" fill="#D9D7D2" opacity="0.5"/><path d="M330 413 L337 420 L330 427 L323 420 Z" fill="#D9D7D2" opacity="0.5"/><path d="M330 503 L337 510 L330 517 L323 510 Z" fill="#D9D7D2" opacity="0.5"/><path d="M420 53 L427 60 L420 67 L413 60 Z" fill="#D9D7D2" opacity="0.5"/><path d="M420 143 L427 150 L420 157 L413 150 Z" fill="#D9D7D2" opacity="0.5"/><path d="M420 233 L427 240 L420 247 L413 240 Z" fill="#D9D7D2" opacity="0.5"/><path d="M420 323 L427 330 L420 337 L413 330 Z" fill="#D9D7D2" opacity="0.5"/><path d="M420 413 L427 420 L420 427 L413 420 Z" fill="#D9D7D2" opacity="0.5"/><path d="M420 503 L427 510 L420 517 L413 510 Z" fill="#D9D7D2" opacity="0.5"/><path d="M510 53 L517 60 L510 67 L503 60 Z" fill="#D9D7D2" opacity="0.5"/><path d="M510 143 L517 150 L510 157 L503 150 Z" fill="#D9D7D2" opacity="0.5"/><path d="M510 233 L517 240 L510 247 L503 240 Z" fill="#D9D7D2" opacity="0.5"/><path d="M510 323 L517 330 L510 337 L503 330 Z" fill="#D9D7D2" opacity="0.5"/><path d="M510 413 L517 420 L510 427 L503 420 Z" fill="#D9D7D2" opacity="0.5"/><path d="M510 503 L517 510 L510 517 L503 510 Z" fill="#D9D7D2" opacity="0.5"/><path d="M300 150 L300 330" stroke="#1F1F1F" stroke-width="1.5" stroke-linecap="round" stroke-linejoin="round"/><path d="M180 230 L420 200" stroke="#1F1F1F" stroke-width="1.5" stroke-linecap="round" stroke-linejoin="round"/><circle cx="300" cy="150" r="10" fill="#C8102E"/><path d="M180 230 L150 300 L210 300 Z" stroke="#D9D7D2" stroke-width="1"/><path d="M420 200 L385 290 L455 290 Z" stroke="#D9D7D2" stroke-width="1"/><path d="M250 330 L350 330 L370 380 L230 380 Z" stroke="#1F1F1F" stroke-width="1.5" stroke-linecap="round" stroke-linejoin="round"/></svg>